:SAMPLES-PER-SECOND 30
:FULLY-SPECIFIED
:DEGREES
419
root  -31.6729 34.4807 -3.76679 -171.143 62.3757 -179.65
RightUpLeg  -5.61661 -9.19418 -8.01233
RightLeg  10.6383 -3.84055 -0.466777
RightFoot  4.89509 0.0303495 -0.161022
RightToes  -32.5649 -0.161976 -0.269391
Spine  -1.65505 1.57416 -0.560297
Spine1  -3.24447 3.19343 -0.392067
HEad  -54.8213 0.571769 -1.62468
LeftShoulder1  -1.94126e-019 -3.10601e-018 -2.51263e-017
LeftArm  13.6289 31.0218 -70.2485
LeftForeArm  135.182 -72.0169 -144.791
LeftHand  0.130033 0.342919 -2.94889
RightShoulder  -4.96962e-017 0 -2.36833e-017
RightArm  25.8747 -18.191 66.4226
RightForeArm  151.86 79.1934 125.147
RightHand  -0.00697166 2.46859 -0.301943
LeftUpLeg  -19.1398 -6.83876 2.80864
LeftLeg  22.1926 10.0757 3.34901
LeftFoot  1.34303 -0.00302735 0.419856
LeftToes  -18.6494 1.49739e-006 1.00523e-007
420
root  -31.7646 34.5343 -4.2692 -171.072 64.8371 -179.884
RightUpLeg  -6.50104 -10.6124 -8.90157
RightLeg  10.625 -2.26466 -0.274538
RightFoot  6.70364 0.0382708 -0.109691
RightToes  -34.7244 -0.17777 -0.283424
Spine  -1.72941 1.76605 -0.688427
Spine1  -3.39669 3.57519 -0.656596
HEad  -54.6241 1.34412 -1.83455
LeftShoulder1  -1.94126e-019 -3.10601e-018 -2.51263e-017
LeftArm  13.8617 30.9908 -70.1267
LeftForeArm  135.286 -71.9844 -144.872
LeftHand  0.130379 0.341343 -3.07189
RightShoulder  -4.96962e-017 0 -2.36833e-017
RightArm  26.1311 -17.8902 66.8035
RightForeArm  149.78 79.4032 123.33
RightHand  0.0372019 2.71104 0.321934
LeftUpLeg  -18.3246 -5.79312 1.72167
LeftLeg  21.3583 11.4438 3.61495
LeftFoot  0.865919 -0.00143695 0.351737
LeftToes  -16.92 1.49739e-006 1.00523e-007
421
root  -31.8776 34.595 -4.7345 -171.096 67.0364 179.818
RightUpLeg  -7.39805 -13.3488 -9.48079
RightLeg  10.4524 -1.08033 -0.127208
RightFoot  8.56844 0.0415397 -0.0153791
RightToes  -36.3555 -0.190044 -0.293623
Spine  -1.75939 1.84195 -0.808133
Spine1  -3.46177 3.72632 -0.900027
HEad  -54.4956 2.20685 -2.04828
LeftShoulder1  -1.94126e-019 -3.10601e-018 -2.51263e-017
LeftArm  14.282 30.7951 -69.8648
LeftForeArm  136.011 -71.9887 -144.974
LeftHand  0.127765 0.193436 -2.90558
RightShoulder  -4.96962e-017 0 -2.36833e-017
RightArm  26.3359 -17.6467 67.1799
RightForeArm  147.987 79.5896 121.64
RightHand  0.0794079 2.75029 0.919749
LeftUpLeg  -17.4863 -4.89199 0.684331
LeftLeg  20.1798 12.7275 3.73051
LeftFoot  0.689744 -0.00178681 0.329895
LeftToes  -15.6458 1.49739e-006 1.00523e-007
422
root  -32.0005 34.6522 -5.15495 -170.959 68.9498 179.732
RightUpLeg  -8.1993 -16.4184 -9.59682
RightLeg  10.0382 -0.986091 -0.108764
RightFoot  10.3685 0.0520923 -0.0345037
RightToes  -36.8813 -0.194061 -0.296836
Spine  -1.75241 1.81745 -0.891948
Spine1  -3.45269 3.67994 -1.06838
HEad  -54.456 3.09141 -2.17557
LeftShoulder1  -1.94126e-019 -3.10601e-018 -2.51263e-017
LeftArm  14.6589 30.4677 -69.437
LeftForeArm  136.813 -72.0221 -145.032
LeftHand  0.154111 0.0514244 -3.38759
RightShoulder  -4.96962e-017 0 -2.36833e-017
RightArm  26.4843 -17.533 67.3496
RightForeArm  147.183 79.7092 120.62
RightHand  0.0922852 2.64882 1.1256
LeftUpLeg  -16.6698 -4.0065 -0.193585
LeftLeg  18.7937 13.7625 3.67314
LeftFoot  0.621829 -0.00267796 0.325029
LeftToes  -14.2472 1.49739e-006 1.00523e-007
423
root  -32.1233 34.6913 -5.5382 -171.115 70.8731 179.421
RightUpLeg  -9.06224 -20.2273 -9.402
RightLeg  9.59516 -1.55792 -0.160158
RightFoot  11.809 0.0741642 -0.173792
RightToes  -36.4969 -0.191121 -0.294491
Spine  -1.7111 1.81732 -1.00518
Spine1  -3.3767 3.68473 -1.29743
HEad  -54.4325 3.89288 -2.14254
LeftShoulder1  -1.94126e-019 -3.10601e-018 -2.51263e-017
LeftArm  15.021 29.9086 -68.8087
LeftForeArm  136.55 -72.047 -144.941
LeftHand  0.175358 -0.0738668 -3.74873
RightShoulder  -4.96962e-017 0 -2.36833e-017
RightArm  26.4394 -17.6115 67.4808
RightForeArm  146.159 79.7695 119.893
RightHand  0.0948583 2.67046 1.15794
LeftUpLeg  -15.837 -2.71451 -1.11871
LeftLeg  17.3529 14.432 3.46678
LeftFoot  0.551741 -0.00292643 0.313543
LeftToes  -12.8915 1.49739e-006 1.00523e-007
424
root  -32.2286 34.7097 -5.89385 -171.812 72.7173 178.665
RightUpLeg  -9.97664 -24.7489 -8.91485
RightLeg  9.30189 -2.85301 -0.279233
RightFoot  12.6193 0.113023 -0.47153
RightToes  -35.2587 -0.181758 -0.286803
Spine  -1.64526 1.78475 -1.16054
Spine1  -3.25459 3.62516 -1.60991
HEad  -54.3065 4.64635 -2.04327
LeftShoulder1  -1.94126e-019 -3.10601e-018 -2.51263e-017
LeftArm  15.6797 29.2537 -67.9151
LeftForeArm  136.331 -72.0012 -144.998
LeftHand  0.181263 -0.140773 -3.81968
RightShoulder  -4.96962e-017 0 -2.36833e-017
RightArm  26.392 -17.7599 67.7152
RightForeArm  144.782 79.7891 119.312
RightHand  0.100064 2.50919 1.29155
LeftUpLeg  -15.0005 -1.45653 -2.10111
LeftLeg  16.0178 15.0589 3.24978
LeftFoot  0.459927 -0.00279548 0.294337
LeftToes  -11.6734 1.49739e-006 1.00523e-007
425
root  -32.3087 34.7105 -6.2242 -172.944 74.5433 177.561
RightUpLeg  -10.9156 -29.5625 -8.19023
RightLeg  9.08915 -5.13024 -0.483039
RightFoot  12.6607 0.169144 -0.961555
RightToes  -33.019 -0.165253 -0.272391
Spine  -1.58678 1.78595 -1.32193
Spine1  -3.14943 3.63504 -1.93624
HEad  -53.8336 5.26498 -2.01003
LeftShoulder1  -1.94126e-019 -3.10601e-018 -2.51263e-017
LeftArm  16.7013 28.4639 -66.8948
LeftForeArm  136.158 -71.9991 -144.975
LeftHand  0.182792 -0.0709397 -3.74486
RightShoulder  -4.96962e-017 0 -2.36833e-017
RightArm  26.317 -18.0788 68.0403
RightForeArm  143.958 79.808 118.913
RightHand  0.104652 2.32511 1.38621
LeftUpLeg  -14.2197 -0.463202 -3.06019
LeftLeg  14.9965 15.8579 3.12742
LeftFoot  0.300858 -0.00184129 0.25532
LeftToes  -10.6949 1.49739e-006 1.00523e-007
426
root  -32.3726 34.7095 -6.50347 -173.606 76.3761 176.974
RightUpLeg  -11.7057 -33.5814 -7.11381
RightLeg  8.53768 -7.33537 -0.618822
RightFoot  12.4142 0.215302 -1.40443
RightToes  -31.0519 -0.151231 -0.25921
Spine  -1.56362 1.73749 -1.39715
Spine1  -3.11289 3.54713 -2.08856
HEad  -53.1453 6.16749 -2.12839
LeftShoulder1  -1.94126e-019 -3.10601e-018 -2.51263e-017
LeftArm  17.4821 27.9915 -66.0134
LeftForeArm  136.074 -72.0639 -144.833
LeftHand  0.185934 -0.105228 -3.89417
RightShoulder  -4.96962e-017 0 -2.36833e-017
RightArm  26.4074 -18.2808 68.3377
RightForeArm  143.189 79.9103 117.938
RightHand  0.104996 2.35758 1.38283
LeftUpLeg  -13.6199 0.581787 -3.72885
LeftLeg  14.2722 16.5772 3.05156
LeftFoot  0.0717691 -1.78987e-005 0.190583
LeftToes  -9.38314 1.49739e-006 1.00523e-007
427
root  -32.4498 34.715 -6.75536 -174.133 78.4406 176.545
RightUpLeg  -11.7552 -33.2015 -6.76657
RightLeg  7.4907 -7.17721 -0.473986
RightFoot  11.7502 0.191056 -1.28287
RightToes  -27.2697 -0.125579 -0.232549
Spine  -1.5281 1.77872 -1.43724
Spine1  -3.05155 3.63726 -2.17213
HEad  -52.5283 7.11324 -2.31287
LeftShoulder1  -1.94126e-019 -3.10601e-018 -2.51263e-017
LeftArm  18.1271 27.4891 -65.3044
LeftForeArm  135.489 -72.2401 -144.383
LeftHand  0.187991 -0.153879 -3.95088
RightShoulder  -4.96962e-017 0 -2.36833e-017
RightArm  26.3504 -18.4167 68.6024
RightForeArm  142.068 80.0756 116.328
RightHand  0.0863988 2.44164 1.08506
LeftUpLeg  -13.1542 1.76048 -4.29241
LeftLeg  13.7556 17.4131 3.04138
LeftFoot  -0.137256 -4.27027e-005 0.125683
LeftToes  -8.64282 1.49739e-006 1.00523e-007
428
root  -32.5123 34.7104 -7.01731 -175.992 80.6518 174.853
RightUpLeg  -11.9164 -31.2941 -7.14905
RightLeg  7.01088 -6.10627 -0.35229
RightFoot  12.0459 0.175716 -1.09742
RightToes  -28.0055 -0.130431 -0.237868
Spine  -1.46992 1.82751 -1.46582
Spine1  -2.93998 3.73519 -2.22977
HEad  -52.132 8.21485 -2.668
LeftShoulder1  -1.94126e-019 -3.10601e-018 -2.51263e-017
LeftArm  18.2314 27.3825 -65.028
LeftForeArm  135.076 -72.3876 -144.012
LeftHand  0.189869 -0.136776 -3.94957
RightShoulder  -4.96962e-017 0 -2.36833e-017
RightArm  26.3427 -18.3762 68.6913
RightForeArm  140.894 80.1925 114.981
RightHand  0.0969319 2.51219 1.22454
LeftUpLeg  -12.5378 2.87665 -5.03248
LeftLeg  13.1052 18.4917 3.01147
LeftFoot  -0.365905 -0.00037214 0.0449395
LeftToes  -7.57151 1.49739e-006 1.00523e-007
429
root  -32.5586 34.6944 -7.25682 -179.331 82.6822 171.758
RightUpLeg  -12.1431 -29.2026 -7.81836
RightLeg  6.95941 -4.21906 -0.239669
RightFoot  12.6346 0.145062 -0.752516
RightToes  -31.282 -0.152848 -0.260777
Spine  -1.41083 1.82877 -1.47463
Spine1  -2.8255 3.739 -2.24646
HEad  -51.7899 9.27136 -2.98037
LeftShoulder1  -1.94126e-019 -3.10601e-018 -2.51263e-017
LeftArm  17.9365 27.5782 -65.092
LeftForeArm  134.789 -72.483 -143.766
LeftHand  0.193285 -0.147967 -4.07987
RightShoulder  -4.96962e-017 0 -2.36833e-017
RightArm  26.329 -18.3134 68.6183
RightForeArm  140.478 80.2287 114.533
RightHand  0.10444 2.56672 1.32137
LeftUpLeg  -11.8991 4.3173 -5.78894
LeftLeg  12.4738 19.0593 2.88959
LeftFoot  -0.581962 -0.000996637 -0.0347237
LeftToes  -6.73011 1.49739e-006 1.00523e-007
430
root  -32.5778 34.6752 -7.47144 174.693 84.4801 166.088
RightUpLeg  -12.336 -27.1162 -8.59172
RightLeg  7.33161 -2.21829 -0.140107
RightFoot  12.6105 0.0960712 -0.322624
RightToes  -33.2304 -0.166787 -0.273779
Spine  -1.36278 1.79517 -1.48462
Spine1  -2.73243 3.67308 -2.26479
HEad  -51.3592 10.1872 -3.18556
LeftShoulder1  -1.94126e-019 -3.10601e-018 -2.51263e-017
LeftArm  17.5586 27.8935 -65.3005
LeftForeArm  134.573 -72.4977 -143.701
LeftHand  0.194015 -0.154163 -4.07768
RightShoulder  -4.96962e-017 0 -2.36833e-017
RightArm  26.2479 -18.3142 68.4939
RightForeArm  140.278 80.2341 114.416
RightHand  0.0992543 2.69525 1.21559
LeftUpLeg  -11.1058 5.59756 -6.53195
LeftLeg  11.6394 19.6603 2.69108
LeftFoot  -0.710646 -0.00154686 -0.0878972
LeftToes  -5.97689 1.49739e-006 1.00523e-007
431
root  -32.5919 34.6638 -7.64526 167.066 86.014 158.674
RightUpLeg  -12.5526 -25.3904 -8.98346
RightLeg  7.54185 -1.77253 -0.118283
RightFoot  12.5702 0.0848307 -0.225836
RightToes  -33.0827 -0.165715 -0.27281
Spine  -1.35565 1.66499 -1.46348
Spine1  -2.71841 3.41404 -2.21879
HEad  -50.8988 10.8917 -3.26939
LeftShoulder1  -1.94126e-019 -3.10601e-018 -2.51263e-017
LeftArm  17.3194 28.2598 -65.4096
LeftForeArm  134.704 -72.4253 -143.878
LeftHand  0.191943 -0.12597 -4.05823
RightShoulder  -4.96962e-017 0 -2.36833e-017
RightArm  26.0572 -18.3594 68.4481
RightForeArm  140.144 80.2408 114.312
RightHand  0.108894 2.91996 1.30004
LeftUpLeg  -10.4494 6.66547 -7.02895
LeftLeg  10.8165 20.1965 2.47302
LeftFoot  -0.794907 -0.000915838 -0.126371
LeftToes  -5.37941 1.49739e-006 1.00523e-007
